<svg width="76" height="113" viewBox="0 0 76 113" fill="none" xmlns="http://www.w3.org/2000/svg">
<path fill-rule="evenodd" clip-rule="evenodd" d="M35.8202 1.03503C34.9082 1.74403 34.0112 3.19504 33.8262 4.26104C33.5642 5.76704 31.4462 6.78503 24.3032 8.83703C14.4282 11.673 12.4412 12.8021 11.4042 16.1631C11.0382 17.3511 9.85619 20.703 8.77919 23.613C7.15419 27.999 6.49217 28.799 4.90617 28.295C3.30917 27.788 2.99317 28.1891 2.99317 30.7241C2.99317 33.0121 2.62317 33.6181 1.49317 33.1851C-0.278825 32.5051 -0.523822 34.988 1.02818 37.889C1.69618 39.136 1.71216 39.8231 1.07316 39.8231C0.495161 39.8231 0.69817 41.5681 1.55717 44.0041C5.02817 53.8411 6.09219 59.8051 5.05119 63.5771C4.13219 66.9021 4.28819 67.5221 6.66719 70.0041C9.48619 72.9471 10.9932 72.874 10.9932 69.795C10.9932 68.509 11.4822 68.0741 12.4932 68.4611C14.5522 69.2521 14.5142 63.732 12.4332 59.707C11.5752 58.048 11.0302 55.4831 11.2222 54.0071C11.8872 48.9021 14.9932 61.638 14.9932 69.469C14.9932 75.647 15.2872 76.9099 16.9272 77.7879C19.7592 79.3029 19.9852 79.144 20.0722 75.573C20.1152 73.786 20.3782 72.886 20.6552 73.573C20.9332 74.261 21.6192 74.823 22.1812 74.823C23.1642 74.823 23.0402 73.006 21.4052 63.432C20.6672 59.106 22.5572 49.448 24.7542 46.323C25.9922 44.562 26.0612 45.098 25.3272 50.823C24.5642 56.773 24.3152 69.454 24.8672 74.323C24.9912 75.423 24.7902 78.4379 24.4192 81.0229C23.9512 84.2789 24.3022 87.784 25.5582 92.426L27.3722 99.1269L23.6832 102.225C21.0752 104.414 19.9932 106.13 19.9932 108.073C19.9932 111.082 22.5362 111.865 24.8602 109.573C25.8762 108.571 26.4022 108.695 27.5092 110.194C29.2732 112.583 33.5822 111.692 34.5182 108.745C34.8802 107.604 35.3222 99.373 35.5002 90.454C36.1762 56.661 40.0662 55.786 40.5242 89.323C40.5359 90.1806 40.5468 91.002 40.5574 91.7888C40.7525 106.38 40.7885 109.073 42.1529 110.442C42.4618 110.752 42.8387 110.994 43.3009 111.291C43.4107 111.362 43.5254 111.436 43.6452 111.514C46.2122 113.196 46.3422 113.183 47.7402 111.077C49.1112 109.013 49.3112 108.985 51.6742 110.534C53.8002 111.926 54.2952 111.957 55.0632 110.744C56.6042 108.31 56.1092 106.843 52.4932 103.12L52.2198 102.839C50.7488 101.326 49.8661 100.419 49.4588 99.333C48.8475 97.7036 49.3067 95.6726 50.4548 90.594L50.5972 89.964C51.8452 84.439 51.9562 82.156 51.0972 79.692C49.4942 75.093 49.7012 74.323 52.5392 74.323C54.6582 74.323 54.9922 74.6889 54.5352 76.5119C53.7892 79.4849 55.3422 80.199 57.4622 77.857C58.5862 76.615 59.3072 73.89 59.5062 70.131C59.6752 66.937 60.8602 61.623 62.1402 58.323C64.1842 53.055 64.5092 52.666 64.8032 55.138C64.9872 56.686 64.5022 58.936 63.7242 60.138C61.6122 63.402 60.7822 69.8231 62.4732 69.8231C63.2172 69.8231 64.0712 69.2611 64.3702 68.5731C64.6692 67.8861 64.8192 68.6261 64.7032 70.2181C64.4562 73.6171 65.8102 74.408 68.5032 72.44C70.0582 71.303 70.3872 69.975 70.2032 65.584C70.0472 61.853 70.7812 57.8071 72.5342 52.7311C75.1872 45.0491 76.7542 33.2351 74.9742 34.3351C74.4152 34.6801 73.9932 33.631 73.9932 31.894C73.9932 29.337 73.6342 28.8851 71.7612 29.0851C69.9002 29.2841 69.3902 28.6601 68.6902 25.3231C67.0812 17.6571 66.4462 16.3711 63.1782 14.1691C61.3702 12.9501 56.4262 10.789 52.1922 9.36504C45.6022 7.15104 44.2772 6.31304 42.9932 3.55004C41.3552 0.026042 38.4372 -0.996973 35.8202 1.03503ZM14.1232 44.823C14.5812 44.823 15.2322 43.7171 15.5722 42.3661C16.5742 38.3741 15.5852 37.4951 14.3892 41.3151C13.7862 43.2441 13.6662 44.823 14.1232 44.823ZM11.6762 49.011C11.3572 49.808 11.1202 49.571 11.0722 48.406C11.0292 47.352 11.2652 46.762 11.5972 47.094C11.9292 47.426 11.9652 48.289 11.6762 49.011ZM54.4932 59.4291C54.0952 57.1711 53.6862 53.973 53.5852 52.323C53.4832 50.673 52.6182 47.973 51.6612 46.323C49.9542 43.38 49.9332 43.532 50.5602 54.323C51.2832 66.763 52.0712 69.413 53.9852 65.839C54.7842 64.345 54.9632 62.0901 54.4932 59.4291ZM62.6172 45.532C61.5862 46.563 60.9352 45.2831 60.4122 41.1971L59.9162 37.3231L61.5782 41.1161C62.4932 43.2021 62.9602 45.189 62.6172 45.532ZM64.0722 49.406C64.1202 50.571 64.3572 50.808 64.6762 50.011C64.9652 49.289 64.9292 48.426 64.5972 48.094C64.2652 47.762 64.0292 48.352 64.0722 49.406Z" fill="black"/>
</svg>
