<svg width="63" height="107" viewBox="0 0 63 107" fill="none" xmlns="http://www.w3.org/2000/svg">
<path d="M37.378 8.1487C37.756 6.4047 39.141 3.8167 40.455 2.3987C45.039 -2.5473 48.245 0.216739 49.414 10.1237C50.471 19.0897 53.631 29.3187 58.14 38.3727L62.248 46.6208L59.553 50.9697C58.072 53.3628 55.415 57.2707 53.65 59.6557C49.266 65.5797 49.192 71.6147 53.428 77.8927C55.84 81.4677 56.532 83.7627 57.027 89.8197C57.364 93.9447 58.231 98.7158 58.954 100.423C59.677 102.129 59.96 104.328 59.584 105.309C58.933 107.005 58.798 107 56.817 105.207C53.774 102.454 50.191 95.8717 49.41 91.6017C48.604 87.1907 46.865 85.0287 41.329 81.5507C37.402 79.0847 37.184 78.6827 36.508 72.6437C35.781 66.1617 32.157 46.7027 31.566 46.1117C30.856 45.4007 14.295 63.1397 11.941 67.1327C8.09002 73.6637 5.94103 76.4287 5.94103 74.8507C5.94103 73.8727 5.48904 74.0347 4.47304 75.3787C3.03904 77.2737 3.00404 77.2667 2.97304 75.1007C2.95104 73.5467 2.49202 73.0547 1.44103 73.4577C-2.29997 74.8937 1.74302 68.3927 7.83202 63.1807C15.861 56.3087 23.468 44.7527 27.004 34.0557C28.775 28.7007 31.679 21.3947 33.457 17.8197C35.236 14.2447 37.001 9.8927 37.378 8.1487Z" fill="black"/>
</svg>
