<svg width="67" height="111" viewBox="0 0 67 111" fill="none" xmlns="http://www.w3.org/2000/svg">
<path fill-rule="evenodd" clip-rule="evenodd" d="M60.1915 109.126C60.4539 109.237 61.1825 107.203 60.7795 103.62C60.3765 100.037 58.6775 93.3913 57.0035 88.8503C55.3295 84.3103 54.1355 80.4203 54.3505 80.2053C55.0985 79.4563 57.7755 84.4633 60.1365 91.0273C61.4435 94.6603 62.9625 97.8003 63.5125 98.0043C64.0625 98.2093 65.0725 95.0013 65.7565 90.8763C66.8235 84.4473 66.7765 82.6013 65.4265 77.9463C63.5935 71.6243 57.7035 64.7853 55.7625 66.7263C55.1305 67.3583 53.8025 67.8764 52.8125 67.8764C51.3835 67.8764 51.0125 68.6893 51.0125 71.8173C51.0125 73.9853 50.4945 76.0784 49.8625 76.4694C48.1885 77.5034 37.0125 65.6304 37.0125 62.8184C37.0125 61.3004 39.5505 58.1613 44.7625 53.2313C51.0735 47.2623 52.2335 45.7164 51.0125 44.9044C48.4155 43.1774 45.3035 43.7834 43.6275 46.3414C42.7395 47.6964 41.1125 49.2873 40.0125 49.8763C36.4575 51.7783 37.6405 48.3514 43.1595 40.7584C44.1025 39.4614 43.9075 38.5374 42.1745 36.1034C38.2065 30.5314 39.7285 17.3024 45.6915 5.52736C47.0415 2.85936 47.9565 0.486378 47.7225 0.253378C45.6315 -1.83762 36.9885 9.38036 32.2195 20.3764C26.3545 33.9004 24.8815 44.5553 29.6475 38.9893C33.9565 33.9573 36.2855 37.8993 32.5245 43.8563C30.2385 47.4783 29.6845 47.8503 28.2915 46.7003C24.5465 43.6093 21.3075 31.0844 19.5345 12.8444C18.7195 4.45338 17.6005 2.49437 16.2025 7.00637C14.1805 13.5294 12.8525 24.4564 13.1805 31.8764C13.4975 39.0414 13.6165 39.3654 15.8285 39.1264C17.7965 38.9144 18.0975 39.2754 17.8285 41.5304C17.5465 43.8994 16.7625 44.3884 10.5125 46.0894C2.01252 48.4044 0.926517 49.3023 4.93652 50.7003C8.56552 51.9653 8.63252 52.2723 6.01252 55.6033C3.31752 59.0303 3.48852 60.2243 6.56452 59.4523C8.36052 59.0023 9.90953 59.4364 11.7975 60.9224L14.4795 63.0314L11.8025 62.3604C8.05552 61.4194 6.96652 62.3703 8.35652 65.3693C9.32252 67.4503 10.2125 67.8624 13.7625 67.8684C16.1005 67.8724 18.0125 68.2874 18.0125 68.7894C18.0125 70.4064 9.68353 75.8873 5.53452 77.0023C-0.378475 78.5913 -1.78348 81.5362 2.43852 83.4932C4.28352 84.3492 5.16152 84.3093 6.18052 83.3223C8.16252 81.4053 24.0125 71.8664 24.0125 72.5914C24.0125 72.9344 21.5855 75.5024 18.6185 78.2964C13.7065 82.9214 13.0865 84.0023 11.6905 90.3763C7.89952 107.681 8.63452 112.335 12.9735 98.5003C14.7735 92.7603 16.6745 89.3493 21.0785 83.9603C24.2425 80.0873 27.0355 76.3473 27.2855 75.6483C27.5345 74.9483 28.1255 74.7394 28.5985 75.1834C29.0725 75.6264 28.7055 77.2014 27.7845 78.6834C23.3055 85.8864 22.0915 89.0753 21.0935 96.2503C19.7445 105.947 19.7175 110.876 21.0125 110.876C21.5625 110.876 22.0175 109.639 22.0245 108.126C22.0515 101.792 26.5605 90.1273 31.5775 83.4143C33.0165 81.4873 33.0886 81.4983 35.5965 84.0063C37.7555 86.1643 38.3285 88.0553 39.2985 96.2183C40.4855 106.197 42.0125 109.178 42.0125 101.516C42.0125 99.1173 42.2975 95.0743 42.6465 92.5303C43.2135 88.3943 43.5115 87.9633 45.4705 88.4553C46.8025 88.7893 48.1695 88.3923 48.9595 87.4403C49.6735 86.5803 50.5905 85.8763 50.9985 85.8763C52.0845 85.8763 56.6855 96.5823 58.0895 102.376C58.7555 105.126 59.9291 109.015 60.1915 109.126ZM17.8565 64.1893C21.0845 64.8093 21.0725 64.8203 20.3565 62.0823C19.6495 59.3803 18.9345 59.3183 16.8285 61.7773C15.2935 63.5713 15.3515 63.7083 17.8565 64.1893Z" fill="black"/>
</svg>
