<svg width="84" height="89" viewBox="0 0 84 89" fill="none" xmlns="http://www.w3.org/2000/svg">
<path fill-rule="evenodd" clip-rule="evenodd" d="M4.06414 79.7521C8.33114 79.5011 8.48516 79.5931 8.48516 82.3791C8.48516 85.6491 10.7142 88.0211 12.9722 87.1541C14.0082 86.7571 14.5172 85.0671 14.5872 81.7921C14.6852 77.2211 14.7242 77.1581 15.4802 80.3541C16.4572 84.4881 17.8532 85.9681 19.9972 85.1451C21.3942 84.6091 21.5402 83.5381 20.9582 78.1011C20.0162 69.3101 21.3732 65.8521 28.0132 60.1201C34.3762 54.6271 35.8052 52.2051 37.4822 44.0671C38.6662 38.3241 38.7532 38.2061 40.0612 40.5671C42.1552 44.3481 41.8162 45.9831 36.9822 55.4121C33.5952 62.0181 32.0851 66.4851 30.8921 73.4291C28.9201 84.9121 29.4111 87.5111 33.5541 87.5111C35.2211 87.5111 37.8512 86.8561 39.3992 86.0561C42.1412 84.6381 42.2261 84.3451 42.6921 74.6681C43.2711 62.6331 45.2442 58.1921 50.2302 57.7021C52.9212 57.4371 53.7432 57.9451 55.8932 61.2021C57.2772 63.2971 59.9712 69.2171 61.8802 74.3581C63.7882 79.4991 66.1252 84.5611 67.0732 85.6081C69.5162 88.3081 74.9372 88.1321 76.9282 85.2881L78.4852 83.0661V85.2291C78.4852 87.7931 79.7021 88.7491 81.8951 87.9071C84.1021 87.0601 83.9882 78.6221 81.5752 64.3271C79.1642 50.0451 76.9131 44.3651 68.9681 32.5111C62.9481 23.5301 44.8342 1.88808 41.9692 0.256081C41.2402 -0.159919 39.4831 -0.0579436 38.0641 0.481056C34.8691 1.69606 34.5672 5.74408 37.4852 8.24308C39.8382 10.2581 40.0642 12.7861 38.0412 14.4641C37.2472 15.1231 35.6102 18.6661 34.4022 22.3371C30.0822 35.4661 26.5812 41.1841 16.6572 51.3201C6.30716 61.8911 2.89915 66.6051 0.431147 73.7591C0.431147 73.7591 -0.733831 76.8811 0.766169 78.3811C2.26617 79.8811 4.06414 79.7521 4.06414 79.7521ZM68.5282 62.5111C69.5622 62.5111 67.7811 52.9101 65.4441 45.8891C64.2771 42.3811 62.9092 39.5111 62.4032 39.5111C60.9262 39.5111 61.3472 46.9281 63.0632 51.1391C66.5682 59.7381 67.9012 62.5111 68.5282 62.5111Z" fill="black"/>
</svg>
