<svg width="96" height="93" viewBox="0 0 96 93" fill="none" xmlns="http://www.w3.org/2000/svg">
<path d="M14.212 18.9879C12.852 13.5049 21.05 4.3289 29.688 1.6659C38.093 -0.925105 38.448 -0.246066 33.216 8.42993C28.395 16.4259 28.754 19.1299 34.637 19.1299C35.602 19.1299 39.503 21.1449 43.305 23.6089C47.108 26.0719 50.762 28.0969 51.425 28.1089C52.088 28.1199 54.328 26.9768 56.404 25.5688C60.993 22.4548 61.633 23.6098 58.69 29.6888C57.48 32.1888 56.654 34.3509 56.855 34.4939C57.055 34.6369 62.844 35.9919 69.719 37.5049C91.944 42.3959 95.719 44.4649 95.719 51.7509C95.719 55.4319 95.675 55.4689 80.317 64.5089C75.971 67.0669 72.218 68.9618 71.976 68.7198C70.877 67.6208 73.217 63.9759 78.732 58.1979C82.025 54.7479 84.719 51.7328 84.719 51.4958C84.719 51.2598 79.432 51.1929 72.969 51.3479C62.041 51.6099 61.242 51.7629 61.549 53.5369C61.73 54.5849 63.13 56.6949 64.66 58.2249C66.19 59.7549 68.718 64.0719 70.278 67.8179C71.838 71.5649 74.375 76.5109 75.916 78.8099C80.19 85.1849 79.088 92.1299 73.803 92.1299C70.345 92.1299 68.361 88.5189 68.598 82.6589C68.878 75.7489 67.254 72.5579 58.975 63.7489C55.418 59.9649 51.874 55.3519 51.1 53.4989C50.326 51.6459 49.13 50.1299 48.442 50.1299C46.764 50.1299 36.719 56.9449 36.719 58.0839C36.719 60.3429 44.205 65.0089 48.856 65.6489C51.531 66.0169 53.719 66.7039 53.719 67.1759C53.719 67.6479 51.782 69.3669 49.415 70.9949C47.047 72.6239 42.338 76.9208 38.949 80.5428C32.73 87.1918 29.588 88.5989 26.919 85.9299C25.308 84.3189 25.398 80.6409 27.083 79.2429C27.833 78.6209 31.302 76.6528 34.792 74.8708C38.282 73.0879 41.286 71.1288 41.466 70.5168C41.647 69.9048 40.433 68.8399 38.77 68.1509C37.106 67.4619 33.654 65.5719 31.098 63.9509L26.452 61.0049L27.013 55.5669C27.519 50.6709 27.383 50.1299 25.647 50.1299C24.586 50.1299 23.719 49.6589 23.719 49.0819C23.719 47.2279 28.78 43.2749 32.048 42.5769C35.453 41.8489 37.719 40.4229 37.719 39.0079C37.719 38.5249 37.06 38.1299 36.254 38.1299C35.448 38.1299 32.75 37.4379 30.259 36.5919C24.772 34.7289 24.072 35.0329 15.072 43.1899C8.995 48.6979 6.71899 50.1329 6.71899 48.4589C6.71899 48.0899 7.50699 46.9049 8.46899 45.8259C10.165 43.9239 10.142 43.8879 7.71899 44.6339C6.34399 45.0579 4.54399 45.6519 3.71899 45.9539C2.38599 46.4429 2.38599 46.2889 3.71899 44.5669C4.54399 43.5019 5.89399 42.1829 6.71899 41.6359C7.87799 40.8679 7.30999 40.5108 4.21899 40.0638L0.218994 39.4858L3.93699 37.8079C5.98199 36.8849 9.24299 36.1299 11.184 36.1299C13.834 36.1299 15.71 35.2299 18.716 32.5139C22.925 28.7109 24.248 24.5099 20.902 25.5719C18.699 26.2709 15.153 22.7809 14.212 18.9879Z" fill="black"/>
</svg>
