<svg width="70" height="103" viewBox="0 0 70 103" fill="none" xmlns="http://www.w3.org/2000/svg">
<path d="M19.9648 14.531C19.4728 13.239 18.7648 9.32701 18.3898 5.83802C17.5468 -2.00598 18.7548 -1.28303 22.8978 8.53797C24.5018 12.339 26.2278 15.587 26.7338 15.756C27.2398 15.925 28.4118 14.077 29.3378 11.651C30.2648 9.225 31.8808 6.46302 32.9288 5.51502C34.7458 3.87002 34.9528 3.90602 37.3168 6.27002C38.6808 7.63402 40.3528 10.606 41.0328 12.873C41.7118 15.14 42.5338 16.993 42.8588 16.99C43.1848 16.987 45.0258 13.165 46.9508 8.495C48.8758 3.825 50.8328 0.0030024 51.2988 2.39906e-06C51.7658 -0.0029976 51.7979 2.808 51.3699 6.245C50.5015 13.2334 50.1658 15.7232 51.2542 16.9732C51.8816 17.6937 52.9822 18.0022 54.7268 18.523C62.7268 20.911 63.6719 22.047 64.1099 29.803C64.4169 35.237 65.0839 37.597 67.2259 40.834C69.8129 44.743 69.9509 45.561 69.9509 56.955C69.9509 68.931 69.9439 68.968 66.7009 73.343C62.1519 79.48 60.2539 80.579 57.8919 78.442C56.1659 76.879 56.1408 76.529 57.5618 73.781C59.2938 70.431 58.6189 68.699 56.6379 71.408C55.4339 73.055 55.2508 73.062 53.9588 71.505C52.7998 70.108 52.7879 69.316 53.8869 66.665C55.9739 61.632 56.2368 57.6201 54.7208 53.9251C53.8828 51.8811 53.6048 49.485 54.0328 47.995C55.1828 43.995 54.9948 41.636 53.3558 39.495C51.8448 37.522 51.7919 37.5321 49.4099 40.2741C46.6259 43.4811 46.6479 47.897 49.4638 51.009C50.8728 52.566 51.2658 54.958 51.3988 62.786C51.5248 70.19 51.9829 73.203 53.2589 75.024C54.4779 76.765 54.9508 79.507 54.9508 84.835C54.9508 91.656 55.1878 92.501 58.0058 95.71C62.0858 100.357 61.5889 102.411 56.2919 102.798C52.7038 103.06 51.7369 102.659 49.0549 99.798C46.2108 96.764 46.0098 96.103 46.5928 91.677C47.1168 87.692 46.8568 86.359 45.0888 83.968C43.7778 82.195 42.9508 79.59 42.9508 77.235C42.9508 75.123 42.5058 72.95 41.9618 72.406C41.4178 71.862 40.1378 68.9591 39.1168 65.9561C37.1098 60.0461 34.5898 58.387 33.3988 62.188C33.0008 63.457 31.6118 66.829 30.3128 69.681C29.0138 72.533 27.9508 76.22 27.9508 77.874C27.9508 79.528 27.0099 82.475 25.8609 84.424C24.2389 87.172 23.9208 88.857 24.4418 91.941C25.0128 95.32 24.7038 96.453 22.3768 99.504C19.8488 102.818 19.2898 103.069 15.0538 102.793C9.17683 102.411 8.49383 100.094 12.9138 95.5339C15.9308 92.4199 16.0548 91.966 15.8638 84.745C15.7018 78.611 16.0368 76.674 17.6638 74.35C19.2258 72.118 19.6658 69.857 19.6788 63.995C19.6898 58.697 20.3189 54.943 21.8229 51.208C24.5659 44.393 24.4538 42.979 20.9478 40.212L18.0558 37.9301L16.8428 40.197C16.1748 41.444 15.4668 47.246 15.2678 53.089C14.9748 61.697 15.1948 63.953 16.4288 64.976C17.9618 66.249 18.5238 71.0891 17.2818 72.3311C16.9138 72.6981 15.7868 72.251 14.7758 71.337C12.1998 69.006 11.5118 70.245 13.3768 73.8521C15.3218 77.6131 15.3288 77.995 13.4508 77.995C12.6258 77.995 11.9508 78.67 11.9508 79.495C11.9508 82.681 10.3978 81.432 2.69783 72.054C1.37983 70.448 0.0808279 60.597 0.00182793 51.613C-0.0361721 47.225 0.512832 44.8221 2.16183 42.1541C3.96483 39.2361 4.32183 37.353 4.10083 31.926C3.84083 25.56 3.96283 25.163 6.95683 22.644C8.67683 21.196 12.5078 19.307 15.4708 18.446C20.5048 16.983 20.7988 16.726 19.9648 14.531Z" fill="black"/>
</svg>
