<svg width="44" height="102" viewBox="0 0 44 102" fill="none" xmlns="http://www.w3.org/2000/svg">
<path d="M11.8002 20.7289C1.87021 9.0759 2 5.99997 5 1.99994C8 -2.0001 19.5 1.9721 22.5 1.99994C25.5 2.02778 35.5182 -2.00005 39.5182 1.99994C43.5182 5.99993 39.4752 13.2049 32.7042 20.9509C30.0922 23.9389 27.9542 26.6289 27.9542 26.9279C27.9542 27.2269 29.4722 28.3669 31.3282 29.4619C34.1042 31.0999 34.9222 32.4029 35.9402 36.8109C36.6212 39.7579 38.2312 44.0119 39.5182 46.2649C41.2572 49.3099 42.0882 52.8999 42.7572 60.2649C43.7932 71.6629 43.5142 75.6848 41.4082 79.7588C39.5692 83.3148 36.3662 83.8428 37.4012 80.4188C39.5132 73.4368 39.1422 63.8169 36.8172 65.2539C36.1622 65.6579 35.9822 67.4419 36.3582 69.7949C37.0382 74.0469 35.7282 74.9829 33.8932 71.5549C33.2062 70.2709 33.0472 68.0149 33.4902 65.8049C34.6852 59.8389 34.4602 47.4359 33.0842 43.4189C30.1432 34.8339 28.4212 41.6799 29.4372 57.9159C29.8252 64.1049 30.2192 73.7508 30.3142 79.3518C30.4092 84.9518 30.7042 89.7148 30.9702 89.9348C31.2362 90.1548 34.2652 92.0169 37.7012 94.0729C43.0892 97.2959 43.8112 98.0669 42.9522 99.6729C42.2832 100.923 40.8862 101.519 38.7052 101.487C36.1412 101.448 34.2392 100.254 29.7042 95.8349C23.4672 89.7569 22.8982 88.6688 25.9542 88.6688C27.0542 88.6688 27.9532 88.1068 27.9512 87.4188C27.9492 86.3738 25.0752 69.3039 23.2382 59.4189C22.4342 55.0939 21.3212 56.1739 20.1432 62.4189C16.3622 82.4769 16.0612 87.2958 18.4822 89.0658C19.7772 90.0128 19.1942 90.9879 14.6392 95.4859C10.5472 99.5279 8.42821 100.868 5.74021 101.118C-2.67379 101.9 -1.71678 98.0888 7.81522 92.8578L14.0152 89.4558L13.8642 79.8118C13.7812 74.5088 14.0552 65.6329 14.4732 60.0899C15.2192 50.1799 14.5442 40.6689 13.0942 40.6689C10.4832 40.6689 8.8642 57.3829 10.8162 64.1869C11.9572 68.1679 11.1022 73.6688 9.34122 73.6688C8.39022 73.6688 7.9542 72.4119 7.9542 69.6689C7.9542 67.3989 7.47322 65.6689 6.84122 65.6689C5.83922 65.6689 6.02719 75.7358 7.12119 80.6688C7.81719 83.8028 5.35918 82.8128 3.15718 79.0718C1.00818 75.4208 0.901205 74.4579 1.49521 64.1689C2.01921 55.0999 2.64221 51.9989 5.04221 46.5009C6.64421 42.8339 7.98621 38.7839 8.02421 37.5009C8.14321 33.5649 9.34118 31.7129 13.3222 29.3109L17.1452 27.0029L11.8002 20.7289Z" fill="black"/>
</svg>
