<svg width="49" height="114" viewBox="0 0 49 114" fill="none" xmlns="http://www.w3.org/2000/svg">
<path fill-rule="evenodd" clip-rule="evenodd" d="M19.4896 0.736249C18.8096 1.41725 18.2526 3.23421 18.2526 4.77421C18.2526 6.31421 17.8035 7.57426 17.2555 7.57426C16.6675 7.57426 16.3996 9.93027 16.6016 13.3033C17.0756 21.1903 16.5555 22.4692 12.1645 24.2262C8.80154 25.5722 8.15654 26.3943 6.79754 31.0693C5.94754 33.9913 5.25256 37.1182 5.25256 38.0182C5.25256 38.9192 4.28456 40.9643 3.10156 42.5643C0.336555 46.3043 -0.584463 52.5583 0.357537 61.1983C2.05554 76.7833 3.04258 78.8793 8.24358 77.9423C10.1736 77.5933 11.8676 77.2163 12.0076 77.1033C12.1486 76.9893 11.2545 75.0552 10.0215 72.8052C7.44454 68.1002 8.21854 66.1463 11.2585 69.6823C12.9895 71.6973 13.2066 72.8633 12.6346 77.0743C11.7356 83.6913 11.6836 94.2713 12.5306 98.3443C13.1176 101.169 12.7256 102.152 9.65057 105.555C5.50857 110.14 5.48053 112.926 9.57153 113.396C14.8645 114.005 16.0816 111.098 16.7856 96.1613C17.0226 91.1363 18.3185 84.0992 20.2095 77.5762C21.8835 71.8022 23.2526 66.2003 23.2526 65.1263C23.2526 63.9113 23.6026 63.5323 24.1796 64.1243C26.1576 66.1513 33.4766 98.8273 32.5146 101.334C31.7006 103.456 34.3885 111.577 36.2325 112.563C38.1695 113.6 42.4046 112.78 43.4656 111.162C43.8636 110.557 42.4095 108.272 40.1855 106.006L36.1926 101.937L36.4725 89.7653L36.7526 77.5943L39.8475 77.5843C44.1715 77.5703 45.9226 75.1422 47.2956 67.2532C48.9596 57.6942 48.1906 49.8352 44.9896 43.6652C43.5326 40.8572 42.0656 36.8742 41.7286 34.8162L41.7118 34.7132C40.7518 28.8338 40.4003 26.6808 39.1536 25.3978C38.4332 24.6566 37.414 24.2057 35.8059 23.4942L35.7585 23.4733C31.0665 21.3983 29.7405 19.4003 31.2195 16.6353C32.1485 14.9013 30.8786 9.51126 28.9686 7.07426C28.5376 6.52426 27.5385 5.17426 26.7505 4.07426C25.3515 2.12326 25.3155 2.12223 25.2845 4.01323C25.2535 5.91523 25.2176 5.91421 23.4036 3.96721C22.3876 2.87621 21.3695 1.42425 21.1415 0.741254C20.8125 -0.245746 20.4736 -0.246751 19.4896 0.736249ZM13.1086 65.0743C14.1066 66.7563 15.1376 58.5703 15.1246 49.0743C15.1126 40.1343 14.2076 35.2193 12.9506 37.2543C12.5946 37.8303 11.8295 42.4822 11.2505 47.5912C10.2535 56.3942 10.7546 61.1063 13.1086 65.0743ZM36.7405 51.4223C37.2895 58.3613 37.1506 60.9923 36.1706 62.1733C35.0476 63.5263 34.6995 63.1543 33.5785 59.4053C32.1875 54.7543 31.8476 44.8493 32.8986 39.5943L33.5445 36.3632L34.7786 39.2992C35.4576 40.9142 36.3405 46.3693 36.7405 51.4223ZM38.3805 72.8932C39.4025 71.3432 40.2425 69.5123 40.2455 68.8243C40.2495 68.1373 39.8286 67.5743 39.3096 67.5743C37.6486 67.5743 35.4556 71.6353 35.9976 73.7083C36.4816 75.5593 36.6635 75.4972 38.3805 72.8932Z" fill="black"/>
</svg>
