<svg width="66" height="100" viewBox="0 0 66 100" fill="none" xmlns="http://www.w3.org/2000/svg">
<path d="M12.355 1.61736C12.675 2.45236 13.872 3.13537 15.015 3.13537C17.043 3.13537 17.05 3.19436 15.297 5.60436C14.309 6.96136 12.986 8.08636 12.357 8.10436C10.728 8.14836 10.131 10.2804 11.053 12.7594C11.575 14.1654 13.07 15.1134 15.474 15.5644C20.07 16.4264 20.742 18.1984 18.097 22.4784C16.944 24.3444 16 27.5354 16 29.5694C16 33.7274 14.819 36.4774 11.461 40.1354C10.199 41.5104 8.403 45.3354 7.47 48.6354C6.537 51.9354 4.981 55.5354 4.012 56.6354C2.163 58.7334 0 62.5304 0 63.6764C0 64.0464 0.662999 64.0953 1.474 63.7843C2.285 63.4723 3.4 63.9863 3.955 64.9273C4.741 66.2583 5.151 66.3514 5.812 65.3514C6.278 64.6454 7.35 64.3323 8.194 64.6563C9.31 65.0843 9.938 64.3443 10.498 61.9403C10.921 60.1223 11.153 58.1854 11.012 57.6354C10.871 57.0854 10.553 55.9203 10.304 55.0473C10.036 54.1083 11.924 51.1913 14.926 47.9073C17.717 44.8533 20 41.6084 20 40.6954C20 39.7824 20.713 37.6564 21.585 35.9704C23.371 32.5174 24.544 33.0573 25.955 37.9803C26.78 40.8563 26.424 41.8504 22.522 47.5494C16.755 55.9734 15.466 58.5873 13.646 65.5583C12.16 71.2483 12.184 71.5663 14.427 76.0313C18.544 84.2243 18.528 84.6243 14.017 86.3963C9.56799 88.1443 8.132 90.3852 10.011 92.6482C11.86 94.8762 13.498 94.4933 18.998 90.5413C24.174 86.8223 24.982 85.1943 22.621 83.2353C20.613 81.5693 20.127 77.5624 20.971 69.6354C21.629 63.4514 21.747 63.1594 21.98 67.1354C22.125 69.6104 22.231 73.6593 22.216 76.1333C22.184 81.3613 22.713 82.6183 24.369 81.2443C25.247 80.5153 26.043 81.9443 27.399 86.6803C28.411 90.2143 29.604 92.8803 30.05 92.6043C30.495 92.3293 31.161 89.5233 31.529 86.3693C31.896 83.2153 33.154 77.2644 34.323 73.1454L36.448 65.6543L37.103 69.6454C37.464 71.8394 38.07 76.2233 38.451 79.3853C38.832 82.5473 39.549 85.1353 40.043 85.1353C40.538 85.1353 41.906 81.9623 43.084 78.0843L45.226 71.0334L48.613 77.6453C50.476 81.2813 52.003 85.4673 52.006 86.9463C52.02 94.1313 56.585 101.95 59.224 99.3113C59.871 98.6643 61.21 98.1353 62.2 98.1353C65.179 98.1353 64.239 95.4223 60.112 92.1053C56.289 89.0333 56.212 88.8363 55.513 80.4513C54.868 72.7043 54.503 71.5894 51.527 68.2794C49.725 66.2754 47.938 63.0604 47.556 61.1354C47.173 59.2104 45.79 54.2604 44.482 50.1354C42.161 42.8184 41.542 39.0894 41.849 34.2634C42.068 30.8244 43.998 32.7484 49.479 41.8674C54.239 49.7864 55.243 54.8594 52.5 57.1354C50.291 58.9684 50.593 62.1354 52.977 62.1354C54.064 62.1354 55.714 63.2954 56.643 64.7134C58.115 66.9594 58.451 67.0814 59.247 65.6584C59.836 64.6064 60.578 64.3433 61.331 64.9193C62.081 65.4933 63.145 65.1374 64.3 63.9244C66.041 62.0974 65.987 61.9223 62.656 58.5913C59.424 55.3593 59.188 54.6703 58.824 47.3913C58.399 38.8843 56.443 33.6404 53.691 33.6264C51.375 33.6154 50.286 31.7504 48.997 25.5834C48.205 21.7964 47.259 20.1144 45.22 18.8664C40.495 15.9724 35.401 10.8884 36.75 10.4114C40.279 9.16237 37.269 7.17736 27.981 4.63036C22.47 3.11836 17.719 1.48935 17.422 1.00835C17.125 0.528353 16.009 0.135367 14.941 0.135367C12.781 0.00537775 11.5607 -0.455384 12.355 1.61736Z" fill="black"/>
</svg>
