<svg width="93" height="70" viewBox="0 0 93 70" fill="none" xmlns="http://www.w3.org/2000/svg">
<path fill-rule="evenodd" clip-rule="evenodd" d="M91.281 61.6596C91.7508 61.5586 88.281 57.6306 88.281 57.6306C86.0978 55.1849 86.3303 53.84 86.809 51.0709C86.901 50.5384 87.0022 49.9533 87.097 49.2975C87.457 46.8025 88.161 44.2455 88.661 43.6155C89.161 42.9865 89.442 42.0056 89.285 41.4366C89.128 40.8676 89.9 39.7035 91 38.8505C92.481 37.7015 92.682 37.0875 91.774 36.4855C90.849 35.8725 90.806 34.7375 91.596 31.8755C92.996 26.8065 92.226 24.8015 89.451 26.2865C86.847 27.6805 85.736 26.8285 81.145 19.9175C79.261 17.0815 76.77 13.9035 75.61 12.8555C74.449 11.8075 73.5 10.3705 73.5 9.6625C73.5 8.9535 72.15 7.57647 70.5 6.60147C68.85 5.62647 67.5 4.56258 67.5 4.23758C67.5 2.70058 58.995 0.165501 53.326 0.0115012C41.676 -0.304499 27.786 5.93956 24.93 12.7746C24.129 14.6916 22.971 16.2605 22.357 16.2605C21.588 16.2605 21.447 18.0775 21.904 22.1105C22.427 26.7335 22.244 28.2285 21.033 29.2335C20.19 29.9325 19.5 31.3235 19.5 32.3235C19.5 33.3245 19.052 34.4195 18.505 34.7575C17.958 35.0955 15.458 39.6196 12.95 44.8116C9.16501 52.6456 7.93101 54.3465 5.69501 54.8145C1.57001 55.6795 0 56.7965 0 58.8695C0 60.5905 0.919991 60.7755 10.21 60.9225C19.207 61.0655 20.488 60.8735 20.986 59.3045C21.297 58.3255 21.147 56.4525 20.653 55.1425C19.194 51.2725 20.873 48.8586 29.958 41.7646C35.157 37.7046 39.09 33.8015 39.894 31.9025C40.625 30.1745 42.199 27.8915 43.39 26.8295C45.554 24.9025 45.562 24.9055 49.847 29.1105C52.207 31.4265 55.795 33.7795 57.819 34.3385C61.752 35.4245 62.81 37.2605 59.503 37.2605C56.888 37.2605 49.5 43.9675 49.5 46.3405C49.5 47.3565 51.109 49.2816 53.076 50.6186C57.06 53.3256 56.815 53.6805 49.454 55.8665C45.65 56.9965 44.456 57.7995 44.696 59.0675C44.903 60.1595 46.171 60.8715 48.27 61.0745C51.389 61.3755 51.461 61.4785 50.012 63.5475C49.18 64.7345 48.5 66.1115 48.5 66.6085C48.5 67.5015 52.375 67.0295 55.75 65.7235C56.955 65.2575 57.5 65.5285 57.5 66.5945C57.5 68.5115 59.495 69.8665 60.362 68.5385C60.713 68.0005 62.096 66.9815 63.436 66.2755C65.646 65.1105 66.078 65.2486 68.08 67.7586C70.277 70.5146 70.292 70.5176 71.428 68.3946C72.127 67.0896 72.319 64.3765 71.924 61.3975C71.299 56.6865 71.393 56.4435 74.879 53.7855C79.631 50.1605 81.309 50.9415 81.693 56.9575C81.693 56.9575 81.8067 61.7605 82 61.7605C82.1717 61.7605 82.3891 61.6248 82.6425 61.4666C82.9691 61.2627 83.3555 61.0215 83.781 60.985C84.5411 60.9199 85.3732 61.3777 85.8255 61.6267C85.9353 61.6871 86.0227 61.7352 86.0813 61.7605C86.2453 61.8315 86.5356 61.6516 86.8653 61.4474C87.2162 61.23 87.6117 60.985 87.9472 60.985C88.2505 60.985 88.8929 61.1534 89.5402 61.323C90.282 61.5174 91.0301 61.7135 91.281 61.6596ZM60.736 49.8295C61.651 50.7445 64.5 49.5805 64.5 48.2915C64.5 47.0215 63.465 46.9976 61.529 48.2216C60.72 48.7336 60.363 49.4565 60.736 49.8295Z" fill="black"/>
</svg>
